<svg xmlns="http://www.w3.org/2000/svg" viewBox="0 0 1440 320"><path fill="#006bb3" fill-opacity="10" d="M0,160L20,170.7C40,181,80,203,120,192C160,181,200,139,240,128C280,117,320,139,360,176C400,213,440,267,480,282.7C520,299,560,277,600,256C640,235,680,213,720,213.3C760,213,800,235,840,240C880,245,920,235,960,218.7C1000,203,1040,181,1080,197.3C1120,213,1160,267,1200,282.7C1240,299,1280,277,1320,229.3C1360,181,1400,107,1420,69.3L1440,32L1440,320L1420,320C1400,320,1360,320,1320,320C1280,320,1240,320,1200,320C1160,320,1120,320,1080,320C1040,320,1000,320,960,320C920,320,880,320,840,320C800,320,760,320,720,320C680,320,640,320,600,320C560,320,520,320,480,320C440,320,400,320,360,320C320,320,280,320,240,320C200,320,160,320,120,320C80,320,40,320,20,320L0,320Z"></path></svg>